# xmcd CD database file
#
# Track frame offsets:
#	150
#	17747
#	39857
#
# Disc length: 762 seconds
#
# Revision: 1
# Processed by: cddbd v1.5.1PL2 Copyright (c) Steve Scherf et al.
# Submitted via: CDex 1.60beta1-cs1
#
DISCID=1602f803
DTITLE=amin - 大きな河と小さな恋
DYEAR=2003
DGENRE=Pop
TTITLE0=大きな河と小さな恋
TTITLE1=上海Boogie Woogie（超速進化的台北リミックス）
TTITLE2=大きな河と小さな恋(オリジナル・カラオケ)
EXTD=YEAR: 2003
EXTT0=
EXTT1=
EXTT2=
PLAYORDER=
